<svg width="39" height="44" viewBox="0 0 39 44" fill="none" xmlns="http://www.w3.org/2000/svg">
<path d="M3.28998 3L3 16.37L16.36 16.67" stroke="black" stroke-width="5" stroke-linecap="round" stroke-linejoin="round"/>
<path d="M4.12012 31.52C5.53582 34.1745 7.63057 36.4057 10.1905 37.9859C12.7504 39.5661 15.6838 40.4387 18.6912 40.5146C21.6986 40.5905 24.6723 39.867 27.3087 38.4179C29.9451 36.9688 32.1497 34.8461 33.6975 32.2664C35.2453 29.6868 36.0808 26.7426 36.1188 23.7345C36.1567 20.7264 35.3957 17.762 33.9135 15.1441C32.4313 12.5263 30.2809 10.3486 27.6819 8.83347C25.083 7.31834 22.1285 6.52002 19.1201 6.52002C12.6301 6.52002 5.99012 11.16 3.12012 16.52" stroke="black" stroke-width="5" stroke-linecap="round" stroke-linejoin="round"/>
</svg>
